<svg id="Layer_1" data-name="Layer 1" xmlns="http://www.w3.org/2000/svg" width="3.9in" height="3.5in" viewBox="0 0 282 249"><title>Logo</title><path d="M141.2,57.3c-2.8-6.2-12.5-25.9-35-36.5-4.3-2.1-31.4-14.9-56.3-1.3A49.5,49.5,0,0,0,31.2,36.9C18,58.6,19.3,86.1,33.7,107c9,13.1,11.8,23.9,35.9,56.7q19.3,26.2,41,55.2" fill="#f37778"/><path d="M140,57.1c4.8-4.8,20.9-19.7,45.8-21.5,4.8-.4,34.6-2.6,53,19a49.5,49.5,0,0,1,11.2,23c4.5,25-6.6,50.2-27.5,64.5-13.1,9-19.6,18-53.8,40q-27.4,17.6-58.1,36.8" fill="#f37778"/><path d="M184.8,130.9a27.8,27.8,0,0,1,11.7-1,15,15,0,0,1,5.6,1.9,9.9,9.9,0,0,1,2.5,2.1l.7.7,17.1,12.9.8.4.4.2,5.4,2.4.7.2,25.1,5.3.9.3h.6a8.1,8.1,0,0,1,5,2.3,17.2,17.2,0,0,1,1.6,2,16.4,16.4,0,0,1,2.4,5,32.5,32.5,0,0,1-1,21.3,17.9,17.9,0,0,1-3.3,5.4,10,10,0,0,1-3.4,2.6l-.7.3a20.6,20.6,0,0,1-4.6.8l-15,1-3.4.2-1.1.2-5,1.3-.8.4a32,32,0,0,1-7.6,3.8h-.3l-3.4,2-1,.8-3.5,3.6c-1.1,1.1-1.9,2.3-2.9,3.4a28.1,28.1,0,0,0-2.1,2.8,32.7,32.7,0,0,1-6.1,6.9,44.1,44.1,0,0,1-10,6.7,25.9,25.9,0,0,1-6.8,2.2l-2.2.4a11.1,11.1,0,0,1-4.6-.6,21.6,21.6,0,0,1-5.3-2.6,29.6,29.6,0,0,1-9.8-10.4,16.2,16.2,0,0,1-1.7-4.8,3.8,3.8,0,0,0-.2-.7,10.9,10.9,0,0,1-.6-5.2,24.2,24.2,0,0,1,2.4-8.2,38.2,38.2,0,0,1,3.3-5.6l1-1.7,1.1-2.1a12.8,12.8,0,0,0,1.5-4.2c.8-4.2,1.7-8.3,2.6-12.5a5.8,5.8,0,0,0,.2-2.1,23.7,23.7,0,0,1-.2-3.1,15.1,15.1,0,0,0-.5-3.6c-.6-2.1-1.1-4.3-1.5-6.5a41,41,0,0,1-.8-7.3,13,13,0,0,0-.2-1.7,9.9,9.9,0,0,1,.9-5.6,18,18,0,0,1,4.5-5.9,27.8,27.8,0,0,1,8.2-5.2Z" fill="#fff" stroke="#f37778" stroke-miterlimit="10" stroke-width="2.03"/><path d="M213.8,91.4a46.4,46.4,0,0,1,1.6,14.9,29.4,29.4,0,0,1-2.5,10.5,17.5,17.5,0,0,1-5.8,7.2,15.1,15.1,0,0,1-10.5,2.6,23.6,23.6,0,0,1-10-3.6,41.2,41.2,0,0,1-11.5-10.8,55.5,55.5,0,0,1-6.7-11.8,54.7,54.7,0,0,1-3.1-9.9,41.9,41.9,0,0,1-.5-16.1,24.9,24.9,0,0,1,3.3-8.9,15.8,15.8,0,0,1,6.5-6.1,15.6,15.6,0,0,1,9.5-1.3,24.3,24.3,0,0,1,9,3.4,40.8,40.8,0,0,1,11,10.1,54.4,54.4,0,0,1,7,12A55.9,55.9,0,0,1,213.8,91.4Z" fill="#fff" stroke="#f37778" stroke-miterlimit="10" stroke-width="2.03"/><path d="M170.3,114.1a40.2,40.2,0,0,1,1.5,13.7,23.1,23.1,0,0,1-2.4,9,14.8,14.8,0,0,1-6.4,6.5,15.3,15.3,0,0,1-8.1,1.6,25.4,25.4,0,0,1-10.4-3.2,43.3,43.3,0,0,1-11.2-8.8,57.2,57.2,0,0,1-9.7-14.2,52.7,52.7,0,0,1-3.2-8.2,41.2,41.2,0,0,1-1.8-13.5,24.4,24.4,0,0,1,2.1-9.3,14.7,14.7,0,0,1,14-9,23.8,23.8,0,0,1,9.9,2.5A40,40,0,0,1,155,88.7a56,56,0,0,1,11.6,15.8A50.2,50.2,0,0,1,170.3,114.1Z" fill="#fff" stroke="#f37778" stroke-miterlimit="10" stroke-width="2.03"/><path d="M155.1,170.3a46.9,46.9,0,0,1,1.5,6.7,33.9,33.9,0,0,1,.2,7.8,24.2,24.2,0,0,1-2.9,9.8,16,16,0,0,1-15.2,8.4,23.7,23.7,0,0,1-9.9-2.9A38,38,0,0,1,116.7,190a46.9,46.9,0,0,1-6.6-11.2,42,42,0,0,1-2.2-6.9,34.9,34.9,0,0,1-.5-14.5,22.2,22.2,0,0,1,2.9-7.6,15.9,15.9,0,0,1,7.2-6.3,16.7,16.7,0,0,1,8.5-1.3,25,25,0,0,1,9.8,3.3,38.9,38.9,0,0,1,11.7,10.4,46,46,0,0,1,5.9,10.1C154.1,167.6,154.7,169.3,155.1,170.3Z" fill="#fff" stroke="#f37778" stroke-miterlimit="10" stroke-width="2.03"/><path d="M221.1,124.8a46.8,46.8,0,0,1-1.4-19.6,32,32,0,0,1,4.5-12.5A19.5,19.5,0,0,1,231,86a15.7,15.7,0,0,1,13.7-1.1,23.3,23.3,0,0,1,8.6,5.7,36.1,36.1,0,0,1,7,10.1,44,44,0,0,1,3.1,8.9,44.5,44.5,0,0,1,.4,19.7,30.4,30.4,0,0,1-4.5,10.9,19.1,19.1,0,0,1-7.1,6.5,15.5,15.5,0,0,1-10.8,1.3,21.3,21.3,0,0,1-9.2-4.9,33.3,33.3,0,0,1-7.1-8.8A41.1,41.1,0,0,1,221.1,124.8Z" fill="#fff" stroke="#f37778" stroke-miterlimit="10" stroke-width="2.03"/></svg>